<svg xmlns="http://www.w3.org/2000/svg" id="_Слой_1" data-name="Слой 1" viewBox="0 0 400 96"><defs><style>.cls-1{fill:#00f}.cls-3{fill:#ff0}</style></defs><path d="M105.3 33.7c-5 8-10.1 15.6-14.8 23.8-.9 1.4-2.8 4.6-4.7 3.6-1.3-.7-2.4-1.7-3.1-3.2-1.9-4.2-4.2-8.2-5.5-12.7-1.1-4-2.1-7.8-3.2-11.8-2 8.2-3.7 16-5.3 24.2-.6 3 0 5.9.3 8.8.2 1.6.3 3.1-.6 4.6-1.2 1.8-4.1 1.7-5-.4-1-2.1-1.3-4.4-.8-6.8 1.9-9.1 4-18.2 6.2-27.2.7-3 .8-6.2 2-9.1.4-1.1 1.1-1.4 2.2-1.3 4.4-.4 5.4 4.1 6.2 7.8 1.4 7 3.9 13.3 7.2 19.3.3.6.5.5.9.2 1-.8 1.9-1.9 2.5-3.2 2.1-5 5.3-9.1 8.3-13.3 3.4-5 6.7-10 9.5-15.5.7-1.3 1-1.4 2.2-.8s3.2 1.8 2.3 3.4c-1.3 2.5-1.8 5.2-1.8 8-.2 10.6-2.1 21-1.5 31.6v4.7c0 .7.2 1.2.7 1.6 1.4 1 2.6 2.4 1.4 4.1-.8 1.2-1.8 2.1-3.2 2-4.1-.3-4.2-9.5-4.4-12.7.3-9.5 1.8-18.8 2.3-28.3 0-.4 0-.8-.3-1.3ZM174.8 67.2c3.9-7.9 8.1-15.4 10.9-23.6.8-1.8 1.1-4.2 2.5-5.5 1-.9 1.7-.7 2.5.5 4.1 8.5 6.3 17.8 10.3 26.4 6.6-13.2 10-27.9 11-42.8.2-2.1 2.6-3.6 3.8-1.3.4.9.6 1.9.5 3-1 16.5-6.5 31.7-12.4 46.8-.8 2.1-2.8 2.7-4.4 1.2-1.3-1.3-2.1-3-2.7-4.7-2.5-6.6-5-13.3-7.5-20-.4.1-.5.6-.6.9-3 6-5.5 12.2-8.3 18.2-1.3 2.8-2.6 5.6-4.2 8.3-1 1.6-2 1.7-3.3.2-1.1-1.3-1.8-3-2.2-4.7-1.7-6.3-3-12.8-4.3-19.3-1.3-6.6-2.4-13.2-3.9-19.8-.2-1.1-.4-2.3.2-3.3.9-1.4 1.9-1.5 2.8 0 1.3 2 2 4.4 2.5 6.9 2.3 10.9 4.2 21.8 6.9 32.7ZM137.4 32.4c-2.1 0-4.1.1-6.2 0-.7 0-.7.5-.8 1-.7 3.6-.5 7.2-.8 10.8 0 .6 0 .9.5 1.3.7.5 1.5.7 2.3.7 2.7 0 5.4.1 8.1-.7.4-.1.9-.1 1.4-.1 2.1.1 4.1-.4 6-1.4 1.1-.5 2.5-1.2 3.6-.6 1.2 1 1.2 4.5 0 5.5-1.4 1-3 1.3-4.6 1.4-5 .3-9.9 1-14.9.9-.8 0-1.5.3-2.2.4-.5.1-.8.4-.9 1-1 4.2-1.8 8.4-2.3 12.7-.1 1.1.5 1.2 1.2 1.2 6.8 0 13.6-.6 20.2-2 2.2-.5 4.3-1.3 6.4-2 .9-.3 1.6 0 2.2.8.6.9 1 2 .4 3.1-.6 1.3-1.5 2.2-2.8 2.5-9.5 2.2-19.3 1.9-28.7 4.9-6 2.2-4.7-6.5-4-10 1-5.5 2.3-10.8 2.6-16.4.2-4.5.8-9 1-13.5 0-1.1-.3-2.3 0-3.4.7-2.7 3.3-4.7 5.7-4.2 8.8 1.9 17.7.6 26.1-2.3 3.3-.8 4 4.2 1.4 5.5-1.6.9-3.4 1.1-5.1 1.4-5.3 1-10.6 1.6-15.9 1.6Z" class="cls-3"/><path d="M310.6 31.9c3.9 10.5-1 21.2-1 31.9 0 2.6.1 5.2 1.3 7.5.3.5.2.8-.2 1.1-2 2.3-5.7 1-5.9-2-1-9.1 2.1-18 2.3-27.2.1-3.1-.1-6.2-.3-9.3 0-.5-.2-.6-.6-.4-.7.3-1.4.5-2.2.7-.7.2-1.4.3-1.9-.6-.4-.8-.3-2.3.3-2.9.5-.6 1.2-1 1.8-1.4 3.3-1.8 6.8-2.6 10.4-3.3 6.9-1.1 15-.7 20.2 4.6 3.2 3.3 3.8 9.2 1.3 13.3-2.6 4.4-6.7 7.1-10.8 9.8 0 .3.3.4.4.5 6.9 5.6 13.7 11.4 20.7 16.7.6.5.7 1.1 0 1.8-2.6 2.9-6.4.7-8.9-1.2-5.1-4-9.9-8.6-14.7-13.1-2.3-2.5-5.2-2.1-8.1-1.8-.7.1-1.1-.3-1.3-.9-.5-1.3-.7-4.1 1.1-4.3 6.8-.5 12.7-3.9 17.2-9.3 2-2.4 1.9-4.9 0-7.2-5.5-6.6-13.7-4.7-21-3Z" class="cls-1"/><path d="M268 64.6c2.4-11.5 3.9-22.9 5.2-34.5q.3-2.85.3-5.7c-.1-3 1.8-4.1 3.8-4.1.5 0 .8.4 1 .9.9 1.8 1.2 3.7.7 5.8-1.3 6.3-2.6 12.6-3.6 19-1 6.2-2 12.4-2.7 18.7-.6 2.8 1.4 7.6-2 8.9-1.6.6-3.1.5-4.2-1.3-.7-1.1-1.4-2.1-1.7-3.4-.2-.8-.6-1.5-1.1-2.2-5.6-8.4-10.6-17.3-14.9-26.9-2.1 8.7-3 17.4-4.1 26.3-.4 3 .7 7-2.1 9.1-1.2 1.1-2.8.4-3.2-1.3-.6-2.4-.3-4.8.2-7.2 1.6-7.9 3.2-15.9 4.3-24 .5-3.8 1.2-7.5 1.1-11.4 0-3.1 2.2-4.8 4.5-3.6q.75.3.9 1.2c1.1 6.2 3.4 11.7 6.2 17 3.4 6.6 7 12.9 11.3 18.8Z" class="cls-3"/><path d="M351 52.6c0-4 .7-7.9 1.3-11.8l2.1-14.4c.2-1.2.6-2.4 1.4-3.2 2.5-2.6 4.3 2.8 3.6 4.8-1.9 7.1-2.7 14.4-3.4 21.8-.4 4 .1 7.8 1.4 11.5q.45 1.2 1.2 2.1c3 3 6.3 4.9 10.5 4.3 10.2-.3 11.2-10.3 11.7-18.6.9-7.4 0-15.1 2.3-22.3.4-1.1 1-2.1 2.2-2.3 3-.4 2.3 4.2 2.2 6.2-.3 3.8-1.1 7.4-1.5 11.2-.6 5.6 0 11.5-1.4 17-2.9 12.2-15.4 18-25.9 11.9-5.9-3.5-7.6-11.6-7.7-18.2" class="cls-1"/><path d="M12.4 75.4C6.2 76 9.3 66.5 9.7 63c1.2-6.9 2-13.9 3-20.8.6-4.3.9-8.6 1.1-12.9.1-2 .8-4.6 3.2-4.4 3.7.3 2.9 5.8 2.2 8.3-2.1 11.1-3.8 22.3-5.1 33.5 0 2.2.6 2.9 2.4 2.5 2.1-.4 4.1-1.1 6.1-1.8 2.4-.8 17.3-4.8 17.7-1.5.6 2.2-1.4 4.7-3.5 4.6-7-.5-13.6 1.8-20.2 3.9-1.4.5-2.8.9-4.3.8ZM220.9 65.6c.6-12.6 3.5-25.4 5.4-37.9.3-3.4 3.1-4.2 4.8-1.1 1.1 2 .8 4.5 0 6.6-1.8 4.4-2.2 9.3-2.8 14.1-.6 5.2-1.2 10.4-1.6 15.6-.2 2-.5 4.1.4 6.1.3.7 0 1.4-.4 2-5.1 5.3-6.2-.8-5.9-5.4ZM45.8 66.3c0-5.8.9-11.6 1.8-17.3 1.3-7.5 2.2-15.2 3.9-22.7.9-2.2 2.2-2.1 3.7-.7 2 2 1.6 5.2.8 7.7-1.7 4.1-2.1 8.5-2.6 12.9-.6 5.8-1.2 11.5-1.8 17.3-.2 1.8-.4 3.7.5 5.4.4.7.1 1.4-.3 2-4.5 4.9-6.4.4-5.9-4.7Z" class="cls-3"/><path d="M289.4 63.6c2.7-.4 3.4 3 2.1 5.1-.8 1.2-1.8 2.1-3 2.9-1.3.8-2.7 0-2.9-1.7-.2-1.5-.1-3 0-4.4.2-1.8 2.4-1.6 3.8-1.8Z" style="fill:red"/></svg>
